<?xml version="1.0" encoding="UTF-8"?>
<svg enable-background="new 0 0 100 100" version="1.1" viewBox="0 0 150 150" xml:space="preserve" xmlns="http://www.w3.org/2000/svg" xmlns:cc="http://creativecommons.org/ns#" xmlns:dc="http://purl.org/dc/elements/1.1/" xmlns:rdf="http://www.w3.org/1999/02/22-rdf-syntax-ns#"><title>Neventir Logo</title><metadata><rdf:RDF><cc:Work rdf:about=""><dc:format>image/svg+xml</dc:format><dc:type rdf:resource="http://purl.org/dc/dcmitype/StillImage"/><dc:title>Neventir Logo</dc:title></cc:Work></rdf:RDF></metadata><defs><linearGradient id="f" x2="130.04" y1="45" y2="45" gradientTransform="matrix(.92103 0 0 .92103 30.193 31.407)" gradientUnits="userSpaceOnUse"><stop stop-color="#010002" offset="0"/><stop stop-color="#1f003d" offset=".45679"/><stop stop-color="#430086" offset=".6461"/><stop stop-color="#7f00ff" offset=".75089"/><stop stop-color="#5c00b8" offset=".85534"/><stop stop-color="#37006d" offset="1"/></linearGradient><linearGradient id="e" x1="73.439" x2="73.488" y1="17.247" y2="10.028" gradientTransform="matrix(3.3113,0,0,3.3113,-205.63,-15.329)" gradientUnits="userSpaceOnUse" spreadMethod="reflect"><stop stop-color="#8b0040" offset="0"/><stop stop-color="#ff5900" stop-opacity=".99608" offset=".21495"/><stop stop-color="#f1d400" stop-opacity=".98824" offset=".66693"/><stop stop-color="#ffc" offset="1"/></linearGradient><linearGradient id="d" x1="73.439" x2="73.488" y1="17.247" y2="10.028" gradientTransform="matrix(3.3113,0,0,3.3113,-206.29,-14.792)" gradientUnits="userSpaceOnUse" spreadMethod="reflect"><stop stop-color="#47001a" offset="0"/><stop stop-color="#761000" stop-opacity=".99608" offset=".21495"/><stop stop-color="#bc5a00" stop-opacity=".98824" offset=".66693"/><stop stop-color="#ff983e" offset="1"/></linearGradient></defs><path d="m76.864 31.412c-0.84504-0.01511-1.6929-2e-3 -2.5454 0.04136l-1.4247 0.78971-9.2517 12.211-7.1164-0.75733v0.67279l2.1353 6.5551-28.469 36.69 1.4229 3.9216s0.08189 1.3331 0 3.3657c-0.08179 2.0326-1.1234 6.5395-0.71056 8.811 0.66117 3.5173 1.6251 4.3329 2.9754 6.073 1.3502 1.7401 4.141 4.5134 4.141 4.5134h73.152l16.021-16.535-3.5582-2.3979 26.332-16.99v-0.67278c-24.232-18.05-46.907-45.823-73.103-46.291zm-0.37057 0.34179c0.68351 0.0038 1.5816 0.05019 2.7595 0.17089 5.3718 0.55041 14.02 2.6703 22.706 13.197 10.254 12.427 11.107 24.12-1.7035 44.03l-1.3546-1.3492s-1.9668 0.7794-3.9054 1.7809c-1.374 1.0071-1.3485 1.7932-2.6857 2.5454 0 0-2.3344 0.57586-2.3332 0.63681 0.2101 10.218-5.7081 11.909-17.793 12.918v-11.272s1.5653-0.0432 3.9306 0.42454c1.1826 0.23385 4.6937 1.0526 7.1686 2.2288l0.9624 0.0953 0.74834-1.2898s2.6035-3.5727 2.8476-8.3127c0.06927-1.3387 0.1103-3.0013 0-4.6789-0.11039-1.6776-0.27719-3.5738-0.71236-5.3607-0.77134-3.1671-2.1353-5.2096-2.1353-5.2096s0.95677-1.3315 1.4247-2.1371c0.71711-1.2348 1.917-3.8484 2.4969-8.1741 0.37367-2.7878 0.44955-9.403-0.80771-12.909 0 0-0.26623-0.77251-0.26623-1.2502l-13.522-2.2468v-13.465s0.1243-0.38392 2.1749-0.37237zm-3.5996 1.1639-0.35437 12.482-8.1849-1.0056zm-14.233 18.681c1.4235 6.6143-1.4239 12.235-6.4058 17.359l-0.1709 0.18888-0.0074 0.93003 0.17809 0.22845c2.1351 6.5554 3.5574 14.515 0.71056 21.482l-4.9811-2.9538-17.08-1.279zm61.526 4.49 1.3959 6.4958 3.4035-2.9808-2.9142 3.4611 6.485 1.3923-6.5515 1.4085 3.0761 3.5132-3.5168-2.961-1.3779 6.4094-1.378-6.4202-3.5024 3.0653 3.0419-3.6122-6.53-1.4031 6.3645-1.3654-2.97-3.3927 3.5564 2.9933zm-53.225 12.468c1.2844 4e-3 2.552 0.0665 3.7974 0.21587v1.3474l-15.658-0.72495c4.0034-0.33133 8.0068-0.85076 11.86-0.83828zm6.6451 0.6548 7.1164 2.1029-7.1164-1.0937zm61.238 2.9987c2.8717 0.0437 5.7834 0.6475 8.7192 1.9824 2.8468 1.1108 4.9811 3.6266 4.9811 3.6266l-27.044 15.03c-8.1847 4.0434-15.062 3.0445-20.756-3.2164 9.8305-6.8303 21.656-17.611 34.1-17.422zm-64.796 22.204v11.445c-7.1171 0.92559-12.099-0.38568-12.099-7.791v-1.9788l1.0434-0.22666s2.0481-0.5678 7.2171-1.1513c2.0572-0.23222 3.8388-0.29681 3.8388-0.29681z" fill="url(#f)" fill-rule="evenodd" style="paint-order:stroke fill markers"/><g transform="matrix(1.0176 0 0 1.0176 49.137 58.518)"><g transform="matrix(.79545 0 0 1.2603 -.22219 0)" stroke="#fefefe" stroke-linecap="square" style="paint-order:stroke fill markers" aria-label="NEVENTIR"><path d="m-59.862 10.34 20.412 20.996-0.08315-18.463h5.7253v32.223l-20.329-20.934 0.08315 17.903h-5.8085z" stroke-width="1.1241" style="font-feature-settings:normal;font-variant-caps:normal;font-variant-ligatures:normal;font-variant-numeric:normal;paint-order:stroke fill markers"/><path d="m-13.14 12.831 5.8628-0.0161 8.1407 18.643 8.1885-18.68h5.6454l-14.214 31.165z" stroke-width="1.1614" style="font-feature-settings:normal;font-variant-caps:normal;font-variant-ligatures:normal;font-variant-numeric:normal;paint-order:stroke fill markers"/><path d="m-30.442 12.831h17.302v5.5512l-11.699 0.05248 0.08163 5.1594 11.617 0.05248v5.4l-11.372 0.05248-0.08163 7.7806 11.454 0.05248v5.4h-17.302z" stroke-width="1.1578" style="font-feature-settings:normal;font-variant-caps:normal;font-variant-ligatures:normal;font-variant-numeric:normal;paint-order:stroke fill markers"/><path d="m15.708 12.779h17.624v5.5512l-11.917 0.05248 0.08315 5.1594 11.833 0.05248v5.4l-11.584 0.05248-0.08315 7.7806 11.667 0.05248v5.4h-17.624z" stroke-width="1.1685" style="font-feature-settings:normal;font-variant-caps:normal;font-variant-ligatures:normal;font-variant-numeric:normal;paint-order:stroke fill markers"/><path d="m35.294 9.7892 20.26 20.576v-17.612h6.2973l0.16631 32.983-20.676-21.247 0.08315 17.731h-6.2141z" stroke-width="1.1509" style="font-feature-settings:normal;font-variant-caps:normal;font-variant-ligatures:normal;font-variant-numeric:normal;paint-order:stroke fill markers"/><path d="m63.342 12.755h19.591v5.7803h-6.8134l-0.08316 23.664h-5.9886l-0.08315-23.664h-6.622z" stroke-width="1.1675" style="font-feature-settings:normal;font-variant-caps:normal;font-variant-ligatures:normal;font-variant-numeric:normal;paint-order:stroke fill markers"/><path d="m84.314 12.894h6.6238v29.204h-6.6238z" stroke-width="1.444" style="font-feature-settings:normal;font-variant-caps:normal;font-variant-ligatures:normal;font-variant-numeric:normal;paint-order:stroke fill markers"/><path d="m94.893 12.817h6.8971c3.4319 0 6.2224 0.79135 8.3714 2.374 2.1657 1.5674 3.2486 3.5804 3.2486 6.039 0 1.9669-0.53338 3.8608-1.9328 5.3667-1.3994 1.5059-2.1682 2.2513-5.2167 3.2858l8.5226 12.3h-7.3844l-6.4946-9.9786 0.0832 9.9786h-6.0944zm6.1776 5.1241-0.0832 7.9771c6.4139 0.12293 6.0452-3.1124 5.9621-4.4577-0.0769-1.2437-0.37484-1.5241-0.95821-2.1503-0.58337-0.48415-1.0009-0.86453-2.2504-1.1412-0.50107-0.13451-0.2547-0.22799-2.6704-0.22799z" stroke-width="1.057" style="font-feature-settings:normal;font-variant-caps:normal;font-variant-ligatures:normal;font-variant-numeric:normal;paint-order:stroke fill markers"/></g><text transform="scale(.79348 1.2603)" x="-62.403641" y="41.683537" fill="url(#d)" font-family="'Tw Cen MT'" font-size="44.54px" letter-spacing="0px" stroke-width="1.1135" word-spacing="0px" style="line-height:1.25" xml:space="preserve"><tspan x="-62.403641" y="41.683537" fill="url(#d)" font-family="'Tw Cen MT'" font-size="44.54px" stroke-width="1.1135" style="font-feature-settings:normal;font-variant-caps:normal;font-variant-ligatures:normal;font-variant-numeric:normal">NEVENTIR</tspan></text>
<text transform="scale(.79348 1.2603)" x="-61.749069" y="41.146076" fill="url(#e)" font-family="'Tw Cen MT'" font-size="44.54px" letter-spacing="0px" stroke-width="1.1135" word-spacing="0px" style="line-height:1.25" xml:space="preserve"><tspan x="-61.749069" y="41.146076" fill="url(#e)" font-family="'Tw Cen MT'" font-size="44.54px" stroke-width="1.1135" style="font-feature-settings:normal;font-variant-caps:normal;font-variant-ligatures:normal;font-variant-numeric:normal">NEVENTIR</tspan></text>
</g></svg>
